# Blender v2.76 (sub 0) OBJ File: ''
# www.blender.org
mtllib propeler.mtl
o P-51_Mustang_Proppeler
v 252.878464 -453.551086 35.271698
v 259.978912 -447.769104 25.135775
v 270.692749 -443.619171 52.427094
v 277.787445 -437.837860 42.291351
v -34.507328 3.922337 164.524643
v -19.635292 22.867603 163.620926
v -76.716080 20.852179 102.557846
v -44.016197 62.507069 100.571014
v 2.985526 29.755615 162.896362
v 5.721152 77.652229 98.978065
v 24.714785 21.955864 162.627731
v 53.498119 60.503227 98.386879
v 37.252621 2.447720 162.917343
v 81.065308 17.609987 99.023956
v 35.809917 -21.317423 163.654999
v 77.892990 -34.643097 100.646118
v 20.937634 -40.262154 164.558640
v 45.193245 -76.297821 102.632996
v -1.683177 -47.150265 165.283295
v -4.544217 -91.443184 104.226013
v -23.412413 -39.350731 165.552246
v -52.321064 -74.294060 104.817230
v -35.950035 -19.842808 165.262299
v -79.888306 -31.401011 104.179718
v -6.364511 -116.824501 3.631940
v -70.137413 -93.933952 4.420415
v -106.934395 -36.679886 3.569875
v -102.700150 33.068455 1.405032
v -59.052101 88.669472 -1.247168
v 7.337765 108.885765 -3.373660
v 71.110756 85.994972 -4.162351
v 107.907936 28.740646 -3.312029
v 103.673660 -41.007195 -1.147158
v 60.025478 -96.608620 1.504924
v 0.682293 -9.592957 195.142120
v 71.110756 85.994972 -4.162351
v 107.907936 28.740646 -3.312029
v 7.337765 108.885765 -3.373660
v -102.700150 33.068455 1.405032
v 60.025478 -96.608620 1.504924
v -70.137413 -93.933952 4.420415
v -6.364511 -116.824501 3.631940
v -59.052101 88.669472 -1.247168
v -106.934395 -36.679886 3.569875
v 85.339706 -28.820461 59.275745
v 10.055873 -99.831123 56.392731
v 274.343201 -425.499725 63.834167
v 235.946213 -453.923859 23.408190
v 252.878464 -453.551086 35.271698
v 270.692749 -443.619171 52.427094
v -84.217514 17.225758 61.811813
v -8.947333 88.624710 51.244106
v -273.226685 414.069855 51.547318
v -234.914398 444.926971 7.599412
v -251.822128 443.846191 20.284304
v -269.600372 432.883698 38.878502
v -436.687347 -305.467377 54.806080
v -446.240082 -287.269318 36.626720
v -418.663574 -308.749481 66.518280
v -446.264282 -269.712372 23.846800
v -91.851776 -19.356352 43.245747
v -24.942572 -93.256226 50.618889
v -25.617605 -93.094704 63.733860
v -92.527756 -19.205553 56.362846
v -423.765045 -302.027191 76.236023
v -451.364929 -262.985321 33.561733
v -451.342926 -280.540283 46.345749
v -441.789978 -298.744049 64.525391
v 270.692749 -443.619171 52.427094
v 277.787445 -437.837860 42.291351
v 274.343201 -425.499725 63.834167
v 281.436920 -419.719971 53.700226
v 85.885826 -27.718880 46.126278
v 85.339706 -28.820461 59.275745
v 281.436920 -419.719971 53.700226
v 274.343201 -425.499725 63.834167
v 10.591845 -98.729240 43.241158
v 10.055873 -99.831123 56.392731
v 85.885826 -27.718880 46.126278
v 85.339706 -28.820461 59.275745
v 243.044281 -448.144196 13.276322
v 235.946213 -453.923859 23.408190
v 10.591845 -98.729240 43.241158
v 10.055873 -99.831123 56.392731
v 277.787445 -437.837860 42.291351
v 259.978912 -447.769104 25.135775
v 281.436920 -419.719971 53.700226
v 243.044281 -448.144196 13.276322
v 10.591845 -98.729240 43.241158
v 85.885826 -27.718880 46.126278
v 447.276703 278.130798 -0.689101
v 452.399353 270.835571 9.210046
v 447.276581 261.280884 -12.450095
v 452.396637 253.988632 -2.554194
v 437.759735 295.297607 16.880548
v 442.882202 288.008362 26.780153
v 447.276703 278.130798 -0.689101
v 452.399353 270.835571 9.210046
v 442.882202 288.008362 26.780153
v 437.759735 295.297607 16.880548
v 424.881592 290.597168 39.145683
v 419.760376 297.885498 29.247862
v 26.038403 82.418304 44.238773
v 26.739721 81.500580 57.353886
v 419.760376 297.885498 29.247862
v 424.881592 290.597168 39.145683
v 92.933990 8.906491 38.156765
v 93.636284 7.999212 51.273758
v 26.038403 82.418304 44.238773
v 26.739721 81.500580 57.353886
v 447.276581 261.280884 -12.450095
v 452.396637 253.988632 -2.554194
v 92.933990 8.906491 38.156765
v 93.636284 7.999212 51.273758
v 437.759735 295.297607 16.880548
v 447.276703 278.130798 -0.689101
v 419.760376 297.885498 29.247862
v 447.276581 261.280884 -12.450095
v 92.933990 8.906491 38.156765
v 26.038403 82.418304 44.238773
v 26.739721 81.500580 57.353886
v 93.636284 7.999212 51.273758
v 424.881592 290.597168 39.145683
v 452.396637 253.988632 -2.554194
v 452.399353 270.835571 9.210046
v 442.882202 288.008362 26.780153
v -258.942383 438.630585 10.801484
v -251.822128 443.846191 20.284304
v -242.032349 439.713379 -1.879271
v -234.914398 444.926971 7.599412
v -276.714844 427.667786 29.395037
v -269.600372 432.883698 38.878502
v -258.942383 438.630585 10.801484
v -251.822128 443.846191 20.284304
v -269.600372 432.883698 38.878502
v -276.714844 427.667786 29.395037
v -273.226685 414.069855 51.547318
v -280.339996 408.855499 42.066162
v -84.790199 16.881163 48.731586
v -84.217514 17.225758 61.811813
v -280.339996 408.855499 42.066162
v -273.226685 414.069855 51.547318
v -9.509381 88.278992 38.160709
v -8.947333 88.624710 51.244106
v -84.790199 16.881163 48.731586
v -84.217514 17.225758 61.811813
v -242.032349 439.713379 -1.879271
v -234.914398 444.926971 7.599412
v -9.509381 88.278992 38.160709
v -8.947333 88.624710 51.244106
v -276.714844 427.667786 29.395037
v -258.942383 438.630585 10.801484
v -280.339996 408.855499 42.066162
v -242.032349 439.713379 -1.879271
v -9.509381 88.278992 38.160709
v -84.790199 16.881163 48.731586
v -446.240082 -287.269318 36.626720
v -451.342926 -280.540283 46.345749
v -446.264282 -269.712372 23.846800
v -451.364929 -262.985321 33.561733
v -436.687347 -305.467377 54.806080
v -441.789978 -298.744049 64.525391
v -446.240082 -287.269318 36.626720
v -451.342926 -280.540283 46.345749
v -441.789978 -298.744049 64.525391
v -436.687347 -305.467377 54.806080
v -423.765045 -302.027191 76.236023
v -418.663574 -308.749481 66.518280
v -24.942572 -93.256226 50.618889
v -25.617605 -93.094704 63.733860
v -418.663574 -308.749481 66.518280
v -423.765045 -302.027191 76.236023
v -91.851776 -19.356352 43.245747
v -92.527756 -19.205553 56.362846
v -24.942572 -93.256226 50.618889
v -25.617605 -93.094704 63.733860
v -446.264282 -269.712372 23.846800
v -451.364929 -262.985321 33.561733
v -91.851776 -19.356352 43.245747
v -92.527756 -19.205553 56.362846
v 103.673660 -41.007195 -1.147158
v 259.978912 -447.769104 25.135775
v 252.878464 -453.551086 35.271698
v 243.044281 -448.144196 13.276322
v 235.946213 -453.923859 23.408190
vt 0.043066 0.848015
vt 0.043618 0.850746
vt 0.029492 0.847356
vt 0.030047 0.850087
vt 0.922142 0.130518
vt 0.921721 0.124624
vt 0.958959 0.130516
vt 0.959083 0.113735
vt 0.922467 0.119500
vt 0.959219 0.102974
vt 0.922864 0.124666
vt 0.959029 0.114780
vt 0.922295 0.130745
vt 0.959013 0.125483
vt 0.922142 0.140911
vt 0.958959 0.140841
vt 0.921721 0.146885
vt 0.959083 0.157628
vt 0.922464 0.151980
vt 0.959219 0.168378
vt 0.922864 0.146794
vt 0.959029 0.156569
vt 0.922295 0.140734
vt 0.959013 0.145870
vt 0.995705 0.176767
vt 0.995705 0.162680
vt 0.995705 0.146245
vt 0.995705 0.125114
vt 0.995705 0.108679
vt 0.995705 0.094592
vt 0.913889 0.134874
vt 0.803446 0.947546
vt 0.808595 0.943804
vt 0.801478 0.953599
vt 0.808595 0.963395
vt 0.820110 0.947546
vt 0.820110 0.959653
vt 0.822078 0.953599
vt 0.803446 0.959653
vt 0.814961 0.963395
vt 0.375032 0.651249
vt 0.365853 0.677825
vt 0.232327 0.651039
vt 0.228766 0.668093
vt 0.226348 0.662663
vt 0.226932 0.655311
vt 0.234122 0.669378
vt 0.234122 0.662330
vt 0.228888 0.669378
vt 0.228888 0.662330
vt 0.374794 0.662330
vt 0.374794 0.669378
vt 0.347596 0.662330
vt 0.347596 0.669378
vt 0.229669 0.662237
vt 0.229669 0.669285
vt 0.043515 0.850274
vt 0.042963 0.847543
vt 0.055004 0.849980
vt 0.054452 0.847250
vt 0.029944 0.849614
vt 0.029389 0.846884
vt 0.041187 0.847046
vt 0.041739 0.849777
vt 0.029698 0.847340
vt 0.030250 0.850070
vt 0.054758 0.847706
vt 0.055313 0.850436
vt 0.040672 0.847194
vt 0.041224 0.849925
vt 0.029183 0.847487
vt 0.029735 0.850217
vt 0.054244 0.847854
vt 0.054798 0.850584
vt 0.814961 0.943804
vt 0.055107 0.850453
vt 0.054555 0.847723
vn 0.549200 -0.830900 -0.089300
vn 0.549300 -0.830900 -0.089300
vn 0.549300 -0.830800 -0.089300
vn 0.549400 -0.830800 -0.089300
vn -0.631300 0.522900 0.572800
vn -0.220500 0.785100 0.578800
vn 0.280800 0.762200 0.583200
vn 0.684100 0.448200 0.575400
vn 0.827900 -0.032900 0.559900
vn 0.668500 -0.498500 0.551900
vn 0.257800 -0.787800 0.559400
vn -0.270400 -0.773200 0.573600
vn -0.690000 -0.434900 0.578600
vn -0.325600 -0.915400 0.236800
vn -0.816900 -0.521300 0.246900
vn -0.815900 0.067400 0.574200
vn -0.964400 0.066500 0.255800
vn -0.752000 0.603100 0.266000
vn -0.271800 0.921600 0.277000
vn 0.327300 0.902300 0.280500
vn 0.808400 0.523600 0.269000
vn 0.967400 -0.051000 0.248200
vn 0.770400 -0.593700 0.232200
vn 0.290300 -0.929100 0.229200
vn -0.206200 -0.601000 0.772200
vn -0.537800 -0.334200 0.774000
vn -0.641300 0.062700 0.764700
vn -0.495600 0.425200 0.757300
vn -0.167800 0.630700 0.757700
vn 0.228000 0.609100 0.759600
vn 0.546200 0.362300 0.755200
vn 0.664200 -0.017100 0.747400
vn 0.539900 -0.388200 0.746900
vn 0.212000 -0.616300 0.758400
vn -0.023000 -0.029600 -0.999300
vn -0.033900 -0.004700 0.999400
vn -0.510100 -0.396500 0.763300
vn -0.526600 -0.374300 0.763300
vn -0.526300 -0.374500 0.763400
vn 0.079400 0.063500 0.994800
vn 0.517500 0.419600 0.745700
vn 0.533800 0.399000 0.745500
vn 0.533600 0.399200 0.745600
vn 0.386000 -0.542700 -0.746000
vn 0.386100 -0.542500 -0.746000
vn 0.386000 -0.542600 -0.746000
vn 0.411200 -0.524300 -0.745600
vn 0.009500 -0.090800 -0.995800
vn -0.014100 0.086600 0.996100
vn -0.406100 0.528100 0.745800
vn -0.385700 0.542800 0.746100
vn -0.385900 0.542600 0.746100
vn 0.842600 -0.398100 0.362700
vn 0.891800 0.446300 0.074400
vn 0.675000 0.329200 0.660300
vn -0.686400 0.726500 0.032900
vn -0.686400 0.726500 0.032800
vn -0.686500 0.726500 0.032400
vn -0.686500 0.726500 0.032300
vn -0.646400 -0.373000 -0.665600
vn -0.843700 -0.530900 -0.078900
vn 0.526400 0.374600 -0.763300
vn 0.526300 0.374700 -0.763300
vn 0.526200 0.374700 -0.763300
vn 0.505900 0.402000 -0.763200
vn 0.038400 -0.000100 -0.999300
vn 0.923100 0.220200 -0.315400
vn 0.923100 0.220100 -0.315400
vn 0.849400 0.525100 -0.052900
vn 0.849500 0.525000 -0.052900
vn 0.849500 0.524900 -0.052900
vn 0.849500 0.524900 -0.052800
vn 0.395500 0.825300 0.403000
vn 0.395600 0.825300 0.403000
vn -0.475700 0.875300 0.086700
vn -0.323700 0.674100 0.663900
vn -0.739900 -0.672700 -0.006900
vn -0.739800 -0.672800 -0.007400
vn -0.739800 -0.672800 -0.006900
vn -0.739800 -0.672700 -0.007500
vn 0.366500 -0.648300 -0.667400
vn 0.554500 -0.827700 -0.086900
vn -0.433500 0.515900 -0.738900
vn -0.433600 0.515800 -0.738900
vn -0.433600 0.515700 -0.738900
vn -0.458400 0.495700 -0.737700
vn -0.055500 0.032000 -0.997900
vn 0.060200 -0.027700 0.997800
vn 0.453400 -0.499800 0.738000
vn 0.433200 -0.516100 0.738900
vn 0.433400 -0.515800 0.739000
vn -0.278700 0.914400 -0.293600
vn -0.555000 0.830900 -0.040600
vn -0.554900 0.830900 -0.040600
vn -0.554800 0.831000 -0.040500
vn -0.821900 0.418600 0.386400
vn -0.894000 -0.445100 0.050900
vn -0.674400 -0.303800 0.673000
vn 0.687300 -0.726300 -0.010300
vn 0.687300 -0.726300 -0.010400
vn 0.687400 -0.726200 -0.011000
vn 0.646200 0.350300 -0.678000
vn 0.846200 0.530500 -0.050400
vn -0.533600 -0.399300 -0.745500
vn -0.533500 -0.399400 -0.745500
vn -0.533600 -0.399400 -0.745500
vn -0.513400 -0.424600 -0.745700
vn -0.083900 -0.058800 -0.994700
vn -0.918100 -0.234100 -0.319900
vn -0.846900 -0.525500 -0.081100
vn -0.846900 -0.525500 -0.081000
vn -0.847000 -0.525400 -0.081000
vn -0.395300 -0.839400 0.373100
vn 0.480900 -0.876000 0.035500
vn 0.368300 -0.662900 0.651900
vn 0.739400 0.672500 0.030400
vn 0.739400 0.672600 0.030000
vn 0.739500 0.672500 0.030200
vn 0.739400 0.672600 0.029800
vn -0.411800 0.633600 -0.654900
vn -0.559900 0.827700 -0.038400
vn 0.256200 -0.905900 -0.337200
usemtl BodyTexture_1.001
s 1
f 1/1/1 2/2/2 3/3/3
f 4/4/4 3/3/3 2/2/2
f 5/5/5 6/6/5 7/7/5
f 8/8/5 7/7/5 6/6/5
f 6/6/6 9/9/6 8/8/6
f 10/10/6 8/8/6 9/9/6
f 9/9/7 11/11/7 10/10/7
f 12/12/7 10/10/7 11/11/7
f 11/11/8 13/13/8 12/12/8
f 14/14/8 12/12/8 13/13/8
f 13/13/9 15/15/9 14/14/9
f 16/16/9 14/14/9 15/15/9
f 15/15/10 17/17/10 16/16/10
f 18/18/10 16/16/10 17/17/10
f 17/17/11 19/19/11 18/18/11
f 20/20/11 18/18/11 19/19/11
f 19/19/12 21/21/12 20/20/12
f 22/22/12 20/20/12 21/21/12
f 21/21/13 23/23/13 22/22/13
f 24/24/13 22/22/13 23/23/13
f 20/20/14 22/22/14 25/25/14
f 26/26/14 25/25/14 22/22/14
f 22/22/15 24/24/15 26/26/15
f 27/27/15 26/26/15 24/24/15
f 23/23/16 5/5/16 24/24/16
f 7/7/16 24/24/16 5/5/16
f 24/24/17 7/7/17 27/27/17
f 28/28/17 27/27/17 7/7/17
f 7/7/18 8/8/18 28/28/18
f 29/29/18 28/28/18 8/8/18
f 8/8/19 10/10/19 29/29/19
f 30/30/19 29/29/19 10/10/19
f 10/10/20 12/12/20 30/30/20
f 31/29/20 30/30/20 12/12/20
f 12/12/21 14/14/21 31/29/21
f 32/28/21 31/29/21 14/14/21
f 14/14/22 16/16/22 32/28/22
f 33/27/22 32/28/22 16/16/22
f 16/16/23 18/18/23 33/27/23
f 34/26/23 33/27/23 18/18/23
f 18/18/24 20/20/24 34/26/24
f 25/25/24 34/26/24 20/20/24
f 35/31/25 21/21/25 19/19/25
f 35/31/26 23/23/26 21/21/26
f 35/31/27 5/5/27 23/23/27
f 35/31/28 6/6/28 5/5/28
f 35/31/29 9/9/29 6/6/29
f 35/31/30 11/11/30 9/9/30
f 35/31/31 13/13/31 11/11/31
f 35/31/32 15/15/32 13/13/32
f 35/31/33 17/17/33 15/15/33
f 35/31/34 19/19/34 17/17/34
f 36/32/35 37/33/35 38/34/35
f 37/33/35 39/35/35 38/34/35
f 40/36/35 39/35/35 37/33/35
f 41/37/35 39/35/35 40/36/35
f 42/38/35 41/37/35 40/36/35
f 38/34/35 39/35/35 43/39/35
f 44/40/35 39/35/35 41/37/35
f 45/41/36 46/42/36 47/43/36
f 46/42/37 48/44/37 47/43/37
f 48/44/38 49/45/38 47/43/38
f 49/45/39 50/46/39 47/43/39
f 51/41/40 52/42/40 53/43/40
f 52/42/41 54/44/41 53/43/41
f 54/44/42 55/45/42 53/43/42
f 55/45/43 56/46/43 53/43/43
f 57/46/44 58/45/45 59/43/46
f 58/45/45 60/44/45 59/43/46
f 60/44/47 61/42/47 59/43/47
f 61/42/48 62/41/48 59/43/48
f 63/41/49 64/42/49 65/43/49
f 64/42/50 66/44/50 65/43/50
f 66/44/51 67/45/51 65/43/51
f 67/45/52 68/46/52 65/43/52
f 69/47/53 70/48/53 71/49/53
f 72/50/53 71/49/53 70/48/53
f 73/51/54 74/52/54 75/50/54
f 76/49/55 75/50/55 74/52/55
f 77/53/56 78/54/57 79/51/58
f 80/52/59 79/51/58 78/54/57
f 81/55/60 82/56/60 83/53/60
f 82/56/61 84/54/61 83/53/61
f 85/46/62 86/45/63 87/43/63
f 86/45/63 88/44/64 87/43/63
f 88/44/65 89/42/65 87/43/65
f 89/42/66 90/41/66 87/43/66
f 91/57/67 92/58/68 93/59/68
f 94/60/68 93/59/68 92/58/68
f 95/61/69 96/62/70 97/57/71
f 98/58/72 97/57/71 96/62/70
f 99/47/73 100/48/74 101/49/74
f 102/50/74 101/49/74 100/48/74
f 103/51/75 104/52/75 105/50/75
f 106/49/76 105/50/76 104/52/76
f 107/53/77 108/54/78 109/51/79
f 110/52/80 109/51/79 108/54/78
f 111/55/81 112/56/81 113/53/81
f 112/56/82 114/54/82 113/53/82
f 115/46/83 116/45/84 117/43/84
f 116/45/84 118/44/85 117/43/84
f 118/44/86 119/42/86 117/43/86
f 119/42/87 120/41/87 117/43/87
f 121/41/88 122/42/88 123/43/88
f 122/42/89 124/44/89 123/43/89
f 124/44/90 125/45/90 123/43/90
f 125/45/91 126/46/91 123/43/91
f 127/63/92 128/64/92 129/65/92
f 130/66/92 129/65/92 128/64/92
f 131/67/93 132/68/94 133/63/95
f 134/64/95 133/63/95 132/68/94
f 135/47/96 136/48/96 137/49/96
f 138/50/96 137/49/96 136/48/96
f 139/51/97 140/52/97 141/50/97
f 142/49/98 141/50/98 140/52/98
f 143/53/99 144/54/100 145/51/100
f 146/52/101 145/51/100 144/54/100
f 147/55/102 148/56/102 149/53/102
f 148/56/103 150/54/103 149/53/103
f 151/46/104 152/45/105 153/43/106
f 152/45/105 154/44/105 153/43/106
f 154/44/107 155/42/107 153/43/107
f 155/42/108 156/41/108 153/43/108
f 157/69/109 158/70/109 159/71/109
f 160/72/109 159/71/109 158/70/109
f 161/73/110 162/74/111 163/69/112
f 164/70/112 163/69/112 162/74/111
f 165/47/113 166/48/113 167/49/113
f 168/50/113 167/49/113 166/48/113
f 169/51/114 170/52/114 171/50/114
f 172/49/115 171/50/115 170/52/115
f 173/53/116 174/54/117 175/51/118
f 176/52/119 175/51/118 174/54/117
f 177/55/120 178/56/120 179/53/120
f 178/56/121 180/54/121 179/53/121
f 181/75/35 40/36/35 37/33/35
f 182/2/122 183/1/122 184/76/122
f 185/77/122 184/76/122 183/1/122
